<svg xmlns="http://www.w3.org/2000/svg" width="189" height="24" viewBox="0 0 189 24" fill="none">
  <path d="M45.4631 8.37711V17.5412L39.4209 23.5452H30.2042V16.7879L38.6677 8.37711H45.4631Z" fill="#17181A"/>
  <path d="M30.4143 8.37711V17.5412L24.3689 23.5452H15.1554V16.7879L23.6189 8.37711H30.4143Z" fill="#17181A"/>
  <path d="M15.2589 8.37711V17.5412L9.21675 23.5452H0V16.7879L8.46351 8.37711H15.2589Z" fill="#17181A"/>
  <path d="M53.4869 23.5452H45.434V8.40264H30.4143V0.454712H49.4588L53.4869 4.42868V23.5452Z" fill="#17181A"/>
  <path d="M80.9464 18.8786H78.3246L76.7147 15.2302H68.9818L67.3783 18.8786H64.7565L71.3935 3.79029H74.2804L80.9432 18.8786H80.9464ZM69.5896 13.4714H76.1004L72.8418 6.19063L69.5896 13.4714Z" fill="#17181A"/>
  <path d="M85.7762 18.8754H83.7105V3.7871H85.7762V18.8786V18.8754Z" fill="#17181A"/>
  <path d="M98.1353 9.55813V8.09941H100.201V17.9306C100.201 21.662 97.728 23.3313 94.4758 23.3218C92.6266 23.3122 90.7774 22.7696 89.1772 21.7641L89.8108 20.4426C91.1524 21.2949 92.6234 21.7513 94.0781 21.7609C96.4542 21.7705 98.1321 20.532 98.1321 17.9274V16.8677C97.1622 18.1827 95.6331 18.9839 93.9262 18.9839C90.8744 18.9839 88.7181 16.5549 88.7181 13.4236C88.7181 10.2923 90.8712 7.87916 93.9262 7.87916C95.5458 7.87916 97.02 8.51117 98.1353 9.55493V9.55813ZM90.7548 13.4268C90.7548 15.5941 92.5037 17.3465 94.6342 17.3465C96.1374 17.3465 97.4564 16.4751 98.1321 15.1919V11.1541C97.2754 10.2125 96.021 9.61877 94.6342 9.61877C92.5037 9.61877 90.7548 11.3201 90.7548 13.4268Z" fill="#17181A"/>
  <path d="M115.327 13.4906C115.327 16.5932 112.631 19.0956 109.327 19.0956C106.023 19.0956 103.327 16.5964 103.327 13.4906C103.327 10.3848 106.023 7.88555 109.327 7.88555C112.631 7.88555 115.327 10.3848 115.327 13.4906ZM105.351 13.4906C105.351 15.6324 107.135 17.3592 109.311 17.3592C111.487 17.3592 113.271 15.6292 113.271 13.4906C113.271 11.352 111.487 9.62196 109.311 9.62196C107.135 9.62196 105.351 11.352 105.351 13.4906Z" fill="#17181A"/>
  <path d="M128.252 9.70815C129.791 8.42179 131.346 7.88874 133.069 7.88874C135.322 7.88874 136.99 9.21978 136.99 11.8467V18.8818H134.925V12.4181C134.925 10.5444 133.861 9.54855 132.29 9.54855C130.9 9.54855 129.597 10.0433 128.533 10.937C128.66 11.4573 128.727 11.9265 128.727 12.5841V18.8818H126.662V12.4181C126.662 10.5444 125.598 9.54855 124.027 9.54855C122.734 9.54855 121.725 9.93158 120.464 10.9562V18.8818H118.399V8.1026H120.464V9.65708C121.942 8.4186 123.332 7.88874 124.9 7.88874C126.468 7.88874 127.615 8.50159 128.252 9.70815Z" fill="#17181A"/>
  <path d="M150.167 11.917V18.8818H148.098V17.5284C146.834 18.5786 145.312 19.0988 143.524 19.0988C141.352 19.0988 139.767 17.7423 139.767 15.6483C139.767 13.5544 141.39 12.4788 143.973 12.4724H148.098V12.1021C148.098 10.2763 146.86 9.48152 145.076 9.48471C143.754 9.48471 142.46 9.91243 141.297 10.7072L140.666 9.39534C142.134 8.43775 143.857 7.90151 145.596 7.89193C148.189 7.88236 150.164 9.06337 150.164 11.9202L150.167 11.917ZM141.807 15.4536C141.807 16.9028 142.89 17.8444 144.39 17.8444C145.89 17.8444 147.08 17.4741 148.098 16.7049V13.3182H144.723C142.903 13.3182 141.807 14.0364 141.807 15.4568V15.4536Z" fill="#17181A"/>
  <path d="M164.453 18.8818H162.387V12.4181C162.387 10.5444 161.301 9.54855 159.682 9.54855C158.172 9.54855 156.737 10.0976 155.641 11.0775V18.8818H153.575V8.1026H155.641V9.63792C157.011 8.51755 158.738 7.88555 160.461 7.88555C162.753 7.88555 164.453 9.21659 164.453 11.8404V18.8818Z" fill="#17181A"/>
  <path d="M170.211 18.8786H168.145V4.17651H170.211V6.15871H168.145L170.211 7.18013V18.8786Z" fill="#17181A"/>
  <path d="M183.663 11.917V18.8818H181.594V17.5284C180.33 18.5786 178.807 19.0988 177.019 19.0988C174.847 19.0988 173.263 17.7423 173.263 15.6483C173.263 13.5544 174.886 12.4788 177.469 12.4724H181.594V12.1021C181.594 10.2763 180.355 9.48152 178.571 9.48471C177.249 9.48471 175.956 9.91243 174.792 10.7072L174.161 9.39534C175.629 8.43775 177.352 7.90151 179.091 7.89193C181.684 7.88236 183.659 9.06337 183.659 11.9202L183.663 11.917ZM175.303 15.4536C175.303 16.9028 176.386 17.8444 177.886 17.8444C179.386 17.8444 180.575 17.4741 181.594 16.7049V13.3182H178.219C176.398 13.3182 175.303 14.0364 175.303 15.4568V15.4536Z" fill="#17181A"/>
  <path d="M186.928 6.90243C186.404 6.90243 185.997 6.48748 185.997 5.97358C185.997 5.45967 186.404 5.04472 186.928 5.04472C187.219 5.04472 187.468 5.16921 187.639 5.37349L187.946 5.19794C187.71 4.90428 187.338 4.71276 186.925 4.71276C186.207 4.71276 185.625 5.27773 185.625 5.97358C185.625 6.66942 186.207 7.23439 186.925 7.23439C187.342 7.23439 187.71 7.04607 187.946 6.74922L187.639 6.57366C187.468 6.77475 187.219 6.90243 186.928 6.90243Z" fill="#17181A"/>
  <path d="M186.786 3.78391C185.564 3.78391 184.571 4.76383 184.571 5.97039C184.571 7.17694 185.564 8.15686 186.786 8.15686C188.008 8.15686 189 7.17694 189 5.97039C189 4.76383 188.008 3.78391 186.786 3.78391ZM186.786 7.75468C185.79 7.75468 184.982 6.95669 184.982 5.97358C184.982 4.99046 185.79 4.19247 186.786 4.19247C187.781 4.19247 188.589 4.99046 188.589 5.97358C188.589 6.95669 187.781 7.75468 186.786 7.75468Z" fill="#17181A"/>
</svg>